# xmcd
#
# Track frame offsets:
#	150
#	32995
#	58082
#	80339
#	97782
#	125368
#	159407
#	173110
#	192351
#	223628
#	252025
#	276197
#	289554
#	310281
#	321789
#	328079
#
# Disc length: 4606 seconds
#
# Revision: 1
# Processed by: cddbd v1.5.1PL2 Copyright (c) Steve Scherf et al.
# Submitted via: EasyCDDAExtractor 8.0.2.1
#
DISCID=df11fc10
DTITLE=Saxon - Z Bau Nurnberg 08-11-01 Disc 1
DYEAR=2001
DGENRE=Hard Rock
TTITLE0=Killing Grounds
TTITLE1=747 (Strangers In The Night)
TTITLE2=Dogs Of War
TTITLE3=Backs To The Wall
TTITLE4=Court Of The Crimson Court
TTITLE5=Dallas 1 PM
TTITLE6=Never Surrender
TTITLE7=Dragon's Lair
TTITLE8=Broken Heroes
TTITLE9=The Thin Red Line
TTITLE10=Strong Arm Of The Law
TTITLE11=Conquistador
TTITLE12=Drum Solo
TTITLE13=Heavy Metal Thunder
TTITLE14=Conquistador Reprise
TTITLE15=Coming Home
EXTD=
EXTT0=
EXTT1=
EXTT2=
EXTT3=
EXTT4=
EXTT5=
EXTT6=
EXTT7=
EXTT8=
EXTT9=
EXTT10=
EXTT11=
EXTT12=
EXTT13=
EXTT14=
EXTT15=
PLAYORDER=
